<?xml version="1.0" encoding="UTF-8"?>
<svg width="30px" height="30px" viewBox="0 0 30 30" version="1.1" xmlns="http://www.w3.org/2000/svg" xmlns:xlink="http://www.w3.org/1999/xlink">
    <!-- Generator: Sketch 46.2 (44496) - http://www.bohemiancoding.com/sketch -->
    <title>Group</title>
    <desc>Created with Sketch.</desc>
    <defs></defs>
    <g id="Page-1" stroke="none" stroke-width="1" fill="none" fill-rule="evenodd">
        <g id="Group" fill-rule="nonzero">
            <path d="M14.9980583,0 C23.2703579,0 30,6.72870844 30,14.9990291 C30,23.2712916 23.270358,30 14.9980583,30 C6.72806737,30 0,23.2706877 0,14.9990291 C0,6.72835999 6.72804877,0 14.9980583,0 Z M14.9980583,1.01941748 C7.29106805,1.01941748 1.01941748,7.29135816 1.01941748,14.9990291 C1.01941748,22.7077212 7.29111832,28.9805825 14.9980583,28.9805825 C22.7073809,28.9805825 28.9805825,22.7082512 28.9805825,14.9990291 C28.9805825,7.29174883 22.7073808,1.01941748 14.9980583,1.01941748 Z" id="Shape" fill="#9E9797"></path>
            <path d="M18.712,15.524 L16.284,15.524 L16.284,24.182 L12.684,24.182 L12.684,15.524 L10.974,15.524 L10.974,12.466 L12.684,12.466 L12.684,10.486 C12.684,9.072 13.358,6.856 16.316,6.856 L18.982,6.867 L18.982,9.836 L17.048,9.836 C16.73,9.836 16.284,9.994 16.284,10.669 L16.284,12.469 L19.026,12.469 L18.712,15.524 L18.712,15.524 Z" id="Shape" fill="#9D8A8A"></path>
        </g>
    </g>
</svg>