<?xml version="1.0" encoding="UTF-8"?>
<svg width="30px" height="30px" viewBox="0 0 30 30" version="1.1" xmlns="http://www.w3.org/2000/svg" xmlns:xlink="http://www.w3.org/1999/xlink">
    <!-- Generator: Sketch 46.2 (44496) - http://www.bohemiancoding.com/sketch -->
    <title>Group</title>
    <desc>Created with Sketch.</desc>
    <defs></defs>
    <g id="Page-1" stroke="none" stroke-width="1" fill="none" fill-rule="evenodd">
        <g id="Group" fill-rule="nonzero">
            <path d="M28.9806155,15 C28.9806155,7.27878748 22.7208687,1.01941748 14.9995146,1.01941748 C7.2783562,1.01941748 1.01938449,7.27859174 1.01938449,15 C1.01938449,22.7214083 7.2783562,28.9805825 14.9995146,28.9805825 C22.7208687,28.9805825 28.9806155,22.7212125 28.9806155,15 Z M30,15 C30,23.2842424 23.2838381,30 14.9995146,30 C6.71536569,30 0,23.284417 0,15 C0,6.71558302 6.71536569,0 14.9995146,0 C23.2838381,0 30,6.71575763 30,15 Z" id="Shape" fill="#896363"></path>
            <path d="M17.163,18.247 C17.028,18.491 16.781,18.685 16.42,18.834 C16.0517028,18.9833206 15.6584073,19.0613689 15.261,19.064 C14.841,19.069 14.558,19.073 13.587,19.073 L13.335,19.073 L13.335,15.886 L14.091,15.886 C14.606,15.886 14.688,15.89 15.161,15.896 C15.636,15.901 16.008,15.943 16.278,16.019 C16.671,16.129 16.953,16.301 17.117,16.528 C17.28,16.755 17.365,16.988 17.365,17.403 C17.365,17.723 17.297,18.003 17.163,18.247 L17.163,18.247 Z M13.335,10.835 L13.658,10.835 C14.336,10.835 14.448,10.841 14.823,10.851 C15.198,10.86 15.513,10.911 15.765,11.004 C16.045,11.109 16.241,11.273 16.352,11.489 C16.464,11.709 16.52,11.926 16.52,12.144 C16.52,12.426 16.472,12.674 16.377,12.89 C16.282,13.105 16.075,13.278 15.765,13.415 C15.541,13.515 15.24,13.575 14.856,13.593 C14.473,13.609 14.42,13.617 13.876,13.617 L13.336,13.617 L13.336,10.835 L13.335,10.835 Z M20.261,15.428 C19.747,14.891 19.384,14.538 18.505,14.368 L18.505,14.298 C19.13,14.028 19.615,13.649 19.955,13.161 C20.295,12.676 20.468,12.116 20.468,11.481 C20.4774599,10.9688563 20.3482308,10.4636879 20.094,10.019 C19.846,9.594 19.468,9.252 18.957,8.999 C18.4885867,8.76552009 17.985945,8.60821246 17.468,8.533 C16.968,8.463 15.848,8.428 14.768,8.428 L9.569,8.428 L9.569,21.572 L15.415,21.572 C16.385,21.572 17.19,21.491 17.822,21.326 C18.449549,21.1617828 19.0403009,20.8801492 19.563,20.496 C20.018,20.166 20.377,19.752 20.638,19.249 C20.898,18.749 21.028,18.183 21.028,17.547 C21.028,16.67 20.773,15.964 20.261,15.428 L20.261,15.428 Z" id="Shape" fill="#9D8585"></path>
        </g>
    </g>
</svg>